# xmcd
#
# Track frame offsets:
# 150
# 12578
# 26175
# 38619
# 49835
# 60361
# 70767
# 83402
# 97454
# 106922
#
# Disc length: 1599 seconds
#
#
# Revision: 0
# Processed by: cddbd v1.5.1PL2 Copyright (c) Steve Scherf et al.
# Submitted via: FreeRIP 2.941 
#
DISCID=7c063d0a
DTITLE=Roy Acuff - American Music Legends
DYEAR=2004
DGENRE=Country
TTITLE0=Wabash Cannonball
TTITLE1=The Wreck on the Highway
TTITLE2=The Great Titanic
TTITLE3=Tied Down
TTITLE4=Fire Ball Mail
TTITLE5=That's What Makes the Juke-Box Play
TTITLE6=The Great Speckled Bird
TTITLE7=The Precious Jewel
TTITLE8=Night Train to Memphis
TTITLE9=The Thief Upon the Tree
EXTD=Cracker Barrel Music
EXTT0=
EXTT1=
EXTT2=
EXTT3=
EXTT4=
EXTT5=
EXTT6=
EXTT7=
EXTT8=
EXTT9=
PLAYORDER=
